<svg width="220" height="58" viewBox="0 0 220 58" fill="none" xmlns="http://www.w3.org/2000/svg">
<path d="M12.8621 45.2831C12.8621 44.4595 12.5715 43.8298 11.9901 43.3938C11.4088 42.9481 10.3624 42.483 8.85089 41.9985C7.33941 41.5044 6.14282 41.02 5.26112 40.5452C2.85825 39.2469 1.65682 37.498 1.65682 35.2986C1.65682 34.1553 1.97655 33.138 2.61603 32.2466C3.26519 31.3455 4.19049 30.6431 5.39192 30.1392C6.60304 29.6354 7.9595 29.3835 9.46129 29.3835C10.9728 29.3835 12.3195 29.6596 13.5016 30.2119C14.6837 30.7545 15.5993 31.5248 16.2484 32.5227C16.9073 33.5207 17.2367 34.6543 17.2367 35.9236H12.8767C12.8767 34.9547 12.5715 34.2038 11.9611 33.6709C11.3506 33.1283 10.4932 32.857 9.38863 32.857C8.32284 32.857 7.49443 33.0847 6.9034 33.5401C6.31237 33.9858 6.01686 34.5768 6.01686 35.3131C6.01686 36.0011 6.36082 36.5776 7.04874 37.0426C7.74634 37.5077 8.76853 37.9437 10.1153 38.3506C12.5957 39.0967 14.4027 40.022 15.5363 41.1265C16.6699 42.2311 17.2367 43.6069 17.2367 45.254C17.2367 47.0853 16.5439 48.5241 15.1584 49.5705C13.7729 50.6072 11.9078 51.1256 9.56303 51.1256C7.93528 51.1256 6.45286 50.8301 5.11578 50.239C3.7787 49.6383 2.75652 48.8196 2.04922 47.7829C1.35161 46.7461 1.00281 45.5447 1.00281 44.1786H5.37739C5.37739 46.5136 6.7726 47.6811 9.56303 47.6811C10.5997 47.6811 11.4088 47.4728 11.9901 47.0562C12.5715 46.6299 12.8621 46.0389 12.8621 45.2831ZM24.5616 47.3323H33.8194V50.8349H20.2015V29.6742H24.5616V47.3323ZM52.7856 40.7341C52.7856 42.8173 52.4174 44.6436 51.681 46.2133C50.9447 47.7829 49.8886 48.994 48.5127 49.8466C47.1466 50.6993 45.577 51.1256 43.8039 51.1256C42.0502 51.1256 40.4854 50.7041 39.1096 49.8612C37.7338 49.0182 36.668 47.8168 35.9122 46.2569C35.1565 44.6872 34.7738 42.8851 34.7641 40.8504V39.804C34.7641 37.7209 35.1371 35.8896 35.8832 34.3103C36.6389 32.7213 37.6998 31.5054 39.066 30.6624C40.4418 29.8098 42.0114 29.3835 43.7748 29.3835C45.5382 29.3835 47.103 29.8098 48.4691 30.6624C49.845 31.5054 50.9059 32.7213 51.652 34.3103C52.4077 35.8896 52.7856 37.716 52.7856 39.7895V40.7341ZM48.3674 39.7749C48.3674 37.5561 47.9702 35.8703 47.1757 34.7173C46.3812 33.5643 45.2476 32.9878 43.7748 32.9878C42.3118 32.9878 41.183 33.5594 40.3885 34.7027C39.594 35.8364 39.1919 37.5029 39.1823 39.7023V40.7341C39.1823 42.8948 39.5795 44.571 40.374 45.7627C41.1685 46.9545 42.3118 47.5503 43.8039 47.5503C45.2669 47.5503 46.3909 46.9787 47.1757 45.8354C47.9605 44.6824 48.3577 43.0062 48.3674 40.8068V39.7749ZM60.3139 43.3792V50.8349H55.9539V29.6742H64.2089C65.7979 29.6742 67.1931 29.9648 68.3945 30.5462C69.6057 31.1275 70.5358 31.9559 71.185 33.0314C71.8341 34.0972 72.1587 35.3131 72.1587 36.6793C72.1587 38.7527 71.4466 40.3902 70.0223 41.5916C68.6077 42.7834 66.6457 43.3792 64.1362 43.3792H60.3139ZM60.3139 39.8476H64.2089C65.3619 39.8476 66.2387 39.5763 66.8395 39.0337C67.4499 38.4911 67.7551 37.716 67.7551 36.7084C67.7551 35.6716 67.4499 34.8335 66.8395 34.1941C66.2291 33.5546 65.3861 33.2252 64.3106 33.2058H60.3139V39.8476ZM87.8985 41.6643H79.5272V47.3323H89.3518V50.8349H75.1671V29.6742H89.3228V33.2058H79.5272V38.2489H87.8985V41.6643ZM107.155 43.0886H103.682V50.8349H99.3218V29.6742H107.184C109.684 29.6742 111.612 30.2313 112.969 31.3455C114.325 32.4597 115.003 34.0342 115.003 36.0689C115.003 37.5125 114.689 38.7188 114.059 39.6877C113.439 40.6469 112.494 41.4124 111.225 41.984L115.803 50.6314V50.8349H111.123L107.155 43.0886ZM103.682 39.5569H107.199C108.294 39.5569 109.142 39.2808 109.742 38.7285C110.343 38.1666 110.643 37.3963 110.643 36.4177C110.643 35.4197 110.358 34.6349 109.786 34.0633C109.224 33.4916 108.357 33.2058 107.184 33.2058H103.682V39.5569ZM131.063 41.6643H122.692V47.3323H132.516V50.8349H118.332V29.6742H132.487V33.2058H122.692V38.2489H131.063V41.6643ZM146.047 45.2831C146.047 44.4595 145.756 43.8298 145.175 43.3938C144.594 42.9481 143.547 42.483 142.036 41.9985C140.524 41.5044 139.328 41.02 138.446 40.5452C136.043 39.2469 134.842 37.498 134.842 35.2986C134.842 34.1553 135.161 33.138 135.801 32.2466C136.45 31.3455 137.375 30.6431 138.577 30.1392C139.788 29.6354 141.144 29.3835 142.646 29.3835C144.158 29.3835 145.504 29.6596 146.686 30.2119C147.868 30.7545 148.784 31.5248 149.433 32.5227C150.092 33.5207 150.421 34.6543 150.421 35.9236H146.061C146.061 34.9547 145.756 34.2038 145.146 33.6709C144.535 33.1283 143.678 32.857 142.573 32.857C141.508 32.857 140.679 33.0847 140.088 33.5401C139.497 33.9858 139.202 34.5768 139.202 35.3131C139.202 36.0011 139.546 36.5776 140.234 37.0426C140.931 37.5077 141.953 37.9437 143.3 38.3506C145.78 39.0967 147.587 40.022 148.721 41.1265C149.855 42.2311 150.421 43.6069 150.421 45.254C150.421 47.0853 149.729 48.5241 148.343 49.5705C146.958 50.6072 145.093 51.1256 142.748 51.1256C141.12 51.1256 139.638 50.8301 138.301 50.239C136.963 49.6383 135.941 48.8196 135.234 47.7829C134.536 46.7461 134.188 45.5447 134.188 44.1786H138.562C138.562 46.5136 139.957 47.6811 142.748 47.6811C143.785 47.6811 144.594 47.4728 145.175 47.0562C145.756 46.6299 146.047 46.0389 146.047 45.2831ZM170.768 40.7341C170.768 42.8173 170.4 44.6436 169.664 46.2133C168.927 47.7829 167.871 48.994 166.496 49.8466C165.129 50.6993 163.56 51.1256 161.787 51.1256C160.033 51.1256 158.468 50.7041 157.092 49.8612C155.717 49.0182 154.651 47.8168 153.895 46.2569C153.139 44.6872 152.757 42.8851 152.747 40.8504V39.804C152.747 37.7209 153.12 35.8896 153.866 34.3103C154.622 32.7213 155.683 31.5054 157.049 30.6624C158.425 29.8098 159.994 29.3835 161.758 29.3835C163.521 29.3835 165.086 29.8098 166.452 30.6624C167.828 31.5054 168.889 32.7213 169.635 34.3103C170.39 35.8896 170.768 37.716 170.768 39.7895V40.7341ZM166.35 39.7749C166.35 37.5561 165.953 35.8703 165.158 34.7173C164.364 33.5643 163.23 32.9878 161.758 32.9878C160.295 32.9878 159.166 33.5594 158.371 34.7027C157.577 35.8364 157.175 37.5029 157.165 39.7023V40.7341C157.165 42.8948 157.562 44.571 158.357 45.7627C159.151 46.9545 160.295 47.5503 161.787 47.5503C163.25 47.5503 164.374 46.9787 165.158 45.8354C165.943 44.6824 166.34 43.0062 166.35 40.8068V39.7749ZM181.77 43.0886H178.297V50.8349H173.937V29.6742H181.799C184.299 29.6742 186.227 30.2313 187.584 31.3455C188.94 32.4597 189.618 34.0342 189.618 36.0689C189.618 37.5125 189.303 38.7188 188.674 39.6877C188.054 40.6469 187.109 41.4124 185.84 41.984L190.418 50.6314V50.8349H185.738L181.77 43.0886ZM178.297 39.5569H181.814C182.909 39.5569 183.756 39.2808 184.357 38.7285C184.958 38.1666 185.258 37.3963 185.258 36.4177C185.258 35.4197 184.972 34.6349 184.401 34.0633C183.839 33.4916 182.972 33.2058 181.799 33.2058H178.297V39.5569ZM208.148 33.2058H201.667V50.8349H197.306V33.2058H190.912V29.6742H208.148V33.2058Z" fill="white"/>
<path d="M97.3699 0L209 24H0L97.3699 0Z" fill="white"/>
</svg>
