<svg xmlns="http://www.w3.org/2000/svg" xmlns:xlink="http://www.w3.org/1999/xlink" version="1.0" x="0px" y="0px" viewBox="0 0 500 625" style="enable-background:new 0 0 500 500;" xml:space="preserve"><g><g><g><path d="M153.19,392.77c-24.22,2.6-48.65-12-58.67-34.01c-9.8-21.5-5.35-49.03,13.38-64.29c9.51-7.75,22.55-11.07,34.51-7.94     c5.35,1.4,10.5,4,14.23,8.16c1.79,2,3.27,4.32,3.85,6.98c0.52,2.38,1.02,3.81-1.39,1.68c-3.99-3.53-5.6-11.28-6.66-16.23     c-1.46-6.82-1.6-14.13-0.31-20.99c2.27-12.16,8.45-22.89,17.69-31.09c9.89-8.78,23.74-14.42,37.09-12.87     c12.4,1.44,23.93,10.67,23.72,23.9c4.72,0,9.43,0,14.15,0c-4.68-37.61,20.83-73.39,59.26-77.76     c18.77-2.14,38.32,3.47,51.08,17.84c12.83,14.45,18.13,35.46,17.05,54.41c-1.21,21.24-12.39,41.22-31.52,51.14     c3.5,3.5,7,7,10.49,10.49c6.79-9.68,22.7-7.3,32-3.52c11.5,4.67,21.09,14.07,26.2,25.35c10.96,24.18-1.76,53.79-25.18,64.85     c-14.12,6.67-30.24,5.93-44.8,1.18c-7.59-2.47-12.78,9.42-5.49,13.02c32.7,16.14,74.53,0.21,89-33.05     c6.85-15.74,8.07-33.94,1.5-50.01c-6.54-15.99-19.31-28.84-35.28-35.46c-17.11-7.09-39.79-6.72-51.2,9.89     c-4.6,6.69,4.17,13.85,10.49,10.49c43.05-22.85,49.25-84.46,22.5-122.12c-27.71-39.01-87.22-37.59-118.76-3.98     c-17.41,18.55-24.91,44.09-21.24,69.09c1.18,8,13.94,5.91,13.89-1.88c-0.11-16.55-11.8-30.49-27.18-35.64     c-16.25-5.44-34.97-0.97-48.97,8.24c-13.53,8.9-23.87,22.38-28.42,37.97c-4.82,16.52-3.61,37.27,5.8,52.09     c4.36,6.87,12.74,11.78,20.77,7.84c8.06-3.95,8.37-13.59,5.4-21.04c-6.24-15.64-24.21-23.36-40.2-22.83     c-34.65,1.15-57.76,35.42-54.38,68.22c1.9,18.45,10.57,35.29,25.42,46.57c14.61,11.1,32.13,14.98,50.18,12.69     C157.83,399.59,157.97,392.26,153.19,392.77L153.19,392.77z"/></g></g><g><g><path d="M148.2,261.56c-2.21-2.64-4.89-4.63-7.26-7.11c-2.74-2.87-4.88-6.38-6.64-9.92c-3.63-7.32-4.81-15.81-5.25-23.87     c-0.9-16.24-0.88-34.3,9.36-47.86c16.79-22.24,48.91-28.12,74.4-20.13c13.65,4.28,25.85,12.8,33.6,24.93     c5.25,8.22,18.48,0.53,13.11-7.67c-18.27-27.88-53.26-39.5-85.33-33.44c-16.95,3.2-33.73,12.13-44.73,25.58     c-13.06,15.96-14.75,36.06-13.81,55.94c0.54,11.36,2.28,22.77,7.75,32.89c4.28,7.92,12.45,17.07,22.1,17.14     C149.04,268.07,150.23,263.98,148.2,261.56L148.2,261.56z"/></g></g><g><g><path d="M84.5,131.84c4.17,5.34,10.46,9.87,16.36,13.16c5.34,2.98,13.06,7.84,19.31,5.81c2.63-0.86,4.82-4.42,2.86-7.02     c-3.83-5.09-10.75-6.1-16.3-8.82c-5.94-2.91-11.39-6.53-17.22-9.6C85.12,123.06,81.7,128.26,84.5,131.84L84.5,131.84z"/></g></g><g><g><path d="M171.42,73.96c0.24,3.96,0.06,7.64,0.58,11.62c0.54,4.12,0.99,8.26,1.46,12.39c0.42,3.73,0.76,7.47,1.01,11.22     c0.27,4.09,0.04,8.16,2.42,11.68c1.79,2.66,6.19,3.23,7.85,0c3.53-6.86,0.41-17.01-0.86-24.31c-0.75-4.33-1.75-8.57-2.91-12.8     c-1.12-4.13-2.95-7.31-4.66-11.12C175.25,70.25,171.27,71.45,171.42,73.96L171.42,73.96z"/></g></g><g><g><path d="M253.25,135.77c5.92-3.54,10.5-9.74,13.95-15.61c3.28-5.58,8.21-13.58,7.6-20.25c-0.53-5.85-7.05-7.28-10.48-2.84     c-3.59,4.65-4.62,11.82-7.35,17.11c-2.83,5.49-6.59,10.59-9.08,16.22C246.41,133.76,249.59,137.95,253.25,135.77L253.25,135.77z"/></g></g><g><g><path d="M101.83,230.24c-5.78-3.41-13.53-4.33-20.11-5.15c-7.11-0.89-14.9-2.25-22.03-1.3c-5.82,0.78-8.65,10.04-1.55,11.42     c7.07,1.37,14.49,1.07,21.66,1.73c6.81,0.63,14.28,1.96,21.04,0.76C104.43,237.06,104.65,231.9,101.83,230.24L101.83,230.24z"/></g></g><g><g><g><path d="M243.91,344.39c-1.66,6.67-0.88,14.15-0.83,20.98c0.06,8.17,0.19,16.33,0.39,24.5c0.2,7.97,0.35,15.95,0.64,23.92      c0.15,3.99,0.29,7.97,0.44,11.96c0.15,4.21-0.16,8.75,1.23,12.76c2.07,5.93,11.38,6.89,13.02,0c1.82-7.68-0.16-16.86-0.68-24.71      c-0.55-8.31-1.24-16.61-1.89-24.91c-0.61-7.84-1.21-15.68-2.07-23.5c-0.78-7.15-1.33-15.48-5.45-21.6      C247.5,341.98,244.49,342.08,243.91,344.39L243.91,344.39z"/></g></g><g><g><path d="M208.36,390.91c3.5,4.45,11.82,4.48,17.08,4.98c7.37,0.7,14.92,0.42,22.31,0.45c7.27,0.03,14.55-0.03,21.82-0.05      c7.11-0.02,15.31,1.27,21.88-1.69c5.3-2.39,2.73-9.25-1.43-10.97c-6.06-2.5-14.94-0.64-21.44-0.44      c-6.94,0.21-13.89,0.37-20.83,0.63c-6.8,0.25-13.61,0.45-20.41,0.75c-3.16,0.14-6.31,0.37-9.48,0.42      c-3.22,0.05-6.15-0.29-8.93,1.49C207.27,387.55,207.22,389.46,208.36,390.91L208.36,390.91z"/></g></g><g><g><path d="M278.64,354.22c-13.09,9.28-24.08,21.23-35.3,32.61c-5.54,5.62-11.08,11.24-16.63,16.86      c-5.42,5.49-13.86,11.3-14.46,19.45c-0.31,4.28,4.07,6.33,7.6,5.79c7.06-1.09,12.38-10.25,16.78-15.32      c5.4-6.22,10.81-12.44,16.22-18.66c10.31-11.87,21.29-23.59,29.39-37.13C283.51,355.66,280.85,352.65,278.64,354.22      L278.64,354.22z"/></g></g><g><g><path d="M212.8,360.21c0.65,3.16,3.49,4.5,5.97,6.25c3.26,2.29,6.54,4.57,9.78,6.9c6.61,4.74,12.88,9.93,19.07,15.2      c12.03,10.26,23.43,21.88,36.58,30.73c5.31,3.58,11.82-4.71,6.9-8.94c-12.31-10.62-25.34-20.72-38.16-30.73      c-6.17-4.82-12.46-9.48-19.02-13.76c-4.39-2.87-14.11-10.47-19.65-8.24C213.16,358.07,212.55,358.98,212.8,360.21L212.8,360.21z      "/></g></g><g><g><path d="M249.37,362.82c1.94,0.22,4.11-1.23,5.68-2.26c1.57-1.03,3.3-1.87,4.83-2.95c2.23-1.57,3.28-4.42,1.82-6.93      c-1.31-2.25-4.65-3.35-6.93-1.82c-1.91,1.29-3.59,2.94-5.21,4.57c-1.56,1.57-3.49,3.81-3.4,6.16      C246.22,361.49,247.58,362.62,249.37,362.82L249.37,362.82z"/></g></g><g><g><path d="M234.13,355.13c3,3.27,7.34,7.12,11.91,7.55c3.8,0.36,5.47-4.84,3.02-7.28c-1.8-1.79-4.38-2.4-6.77-3.05      c-2.24-0.61-4.29-0.88-6.6-0.99C233.69,351.27,232.91,353.79,234.13,355.13L234.13,355.13z"/></g></g><g><g><path d="M268.84,350.1c-4.45,3.04-3.94,9.74-2.98,14.37c0.72,3.49,4.91,5.1,7.96,3.82c3.39-1.43,4.38-5.19,2.82-8.36      c-1.47-2.99-1.49-6.73-3.7-9.3C272.02,349.57,270,349.3,268.84,350.1L268.84,350.1z"/></g></g><g><g><path d="M268.58,366.05c4.06,3.51,8.51,4.7,13.81,5c2.25,0.13,4.96-1.81,5.38-4.09c0.19-1.06,0.3-1.91,0-2.96      c-0.6-2.14-2.98-4.36-5.38-4.09c-3.9,0.43-7.79,0.52-11.69,1.03C268.42,361.23,266.38,364.15,268.58,366.05L268.58,366.05z"/></g></g><g><g><path d="M285.32,376.61c-1.7,0.53-3.03,2.03-4.17,3.34c-1.18,1.35-2.55,2.45-3.83,3.7c-4.39,4.3,2.66,11.25,6.7,6.7      c1.44-1.62,2.58-3.52,3.5-5.48c0.84-1.79,1.87-4.44,1.06-6.41C288.05,377.17,286.82,376.14,285.32,376.61L285.32,376.61z"/></g></g><g><g><path d="M236.16,437.75c3.5-0.22,6.76-2.27,9.91-3.66c3.47-1.53,7.76-2.6,9.88-5.91c1.77-2.78-0.64-5.58-3.4-5.92      c-3.79-0.47-8.15,2.91-11.29,4.78c-2.66,1.58-7.23,3.5-8.06,6.81C232.74,435.68,234.11,437.88,236.16,437.75L236.16,437.75z"/></g></g><g><g><path d="M271.88,433.58c-0.87-4.31-4.65-6.48-8.38-8.17c-3.53-1.6-7.24-5.18-11.28-3.82c-2.44,0.82-3.55,2.62-3.85,5.06      c-0.62,5.08,5.13,7.54,9,9.04c3.67,1.43,7.86,1.66,11.75,1.5C271.07,437.12,272.25,435.44,271.88,433.58L271.88,433.58z"/></g></g><g><g><path d="M230.81,431.56c1.79-2.05,1.86-4.23,1.7-6.85c-0.19-2.99,0-6.4-3.06-7.98c-1.43-0.74-3.65-0.76-4.77,0.62      c-1.19,1.46-1.83,2.8-1.44,4.75c0.25,1.26,0.75,2.49,1.14,3.71c0.8,2.5,1.49,4.72,3.88,6.08      C229.02,432.33,230.2,432.27,230.81,431.56L230.81,431.56z"/></g></g><g><g><path d="M206.1,410c1.91,2.56,4.9,3.55,7.98,4.14c3.52,0.67,7.79,1.69,11.24,0.38c3.97-1.51,4.19-6.88,0-8.32      c-5.29-1.82-11.58,0.35-17.03-0.01C206.49,406.07,204.97,408.48,206.1,410L206.1,410z"/></g></g><g><g><path d="M216.35,376.63c-1.5,2.17-0.27,5.65,0.88,7.77c1.48,2.72,3.55,5.54,6.94,5.56c2.32,0.01,4.57-2.05,4.45-4.45      c-0.15-3.05-2.27-4.61-4.19-6.66c-0.64-0.68-1.35-1.28-1.98-1.97c-1.03-1.12-2.02-1.55-3.51-1.73      C217.87,375.01,216.91,375.82,216.35,376.63L216.35,376.63z"/></g></g><g><g><path d="M216.53,402.68c2.01-0.19,3.32-1.48,4.72-2.82c1.32-1.26,2.69-2.78,3.53-4.42c0.72-1.4,0.59-3.12-0.55-4.26      c-1.05-1.05-2.98-1.42-4.26-0.55c-1.74,1.19-3.2,2.82-4.22,4.68c-0.93,1.7-2.03,3.69-1.44,5.68      C214.58,401.89,215.52,402.77,216.53,402.68L216.53,402.68z"/></g></g><g><g><path d="M225.09,352.49c-0.89,1.83-1.54,3.62-2.01,5.6c-0.59,2.47-0.64,4.31,0.36,6.67c1.05,2.48,5.01,2.18,6.15,0      c1.7-3.24,1.03-7.36,0.66-10.88C229.99,351.45,226.42,349.75,225.09,352.49L225.09,352.49z"/></g></g><g><g><path d="M216.23,373.6c1.79-0.63,3.41-1.41,5.1-2.25c1.99-0.99,3.84-1.61,5.14-3.53c1.48-2.18-0.45-5.89-3.2-5.57      c-2.56,0.29-4.14,1.75-5.98,3.44c-1.48,1.36-2.7,2.71-3.77,4.41C212.46,371.78,214.26,374.3,216.23,373.6L216.23,373.6z"/></g></g><g><g><path d="M291.23,399.58c-0.1-1.05-0.3-1.72-0.94-2.58c-0.58-0.78-1.11-1.59-1.74-2.33c-0.27-0.32-0.55-0.62-0.82-0.94      c-0.08-0.09-0.8-0.99-0.4-0.48c-0.99-1.25-1.76-2.1-3.38-2.62c-2.98-0.95-5.5,2.05-4.84,4.84c0.55,2.33,2.83,3.75,4.73,4.97      c1.57,1,3.83,1.93,5.67,1.4C290.42,401.57,291.33,400.59,291.23,399.58L291.23,399.58z"/></g></g><g><g><path d="M292.02,400.46c-3.36,0.51-6.98,0.75-10.1,2.15c-2.84,1.27-1.37,5.88,1.56,5.77c3.39-0.14,6.79-1.67,9.93-2.85      C296.62,404.33,295.34,399.96,292.02,400.46L292.02,400.46z"/></g></g><g><g><path d="M275.6,425.06c2.05-1.41,2.91-3.67,3.74-5.93c0.93-2.5,2.13-5.08,1.87-7.8c-0.26-2.8-4.1-5.38-6.32-2.62      c-1.97,2.45-2.49,5.06-2.88,8.13c-0.31,2.46-0.68,5.29,0.76,7.48C273.36,425.2,274.64,425.72,275.6,425.06L275.6,425.06z"/></g></g></g></g><text x="0" y="515" fill="#000000" font-size="5px" font-weight="bold" font-family="'Helvetica Neue', Helvetica, Arial-Unicode, Arial, Sans-serif">Created by Mati Carrizales</text><text x="0" y="520" fill="#000000" font-size="5px" font-weight="bold" font-family="'Helvetica Neue', Helvetica, Arial-Unicode, Arial, Sans-serif">from the Noun Project</text></svg>